<svg width="95" height="94" viewBox="0 0 95 94" fill="none" xmlns="http://www.w3.org/2000/svg">
    <g filter="url(#filter0_dd_39_9)">
        <path d="M15.5 21C15.5 12.1634 22.6634 5 31.5 5H63.5C72.3366 5 79.5 12.1634 79.5 21V53C79.5 61.8366 72.3366 69 63.5 69H31.5C22.6634 69 15.5 61.8366 15.5 53V21Z" fill="url(#paint0_linear_39_9)"/>
        <g clip-path="url(#clip0_39_9)">
            <path d="M46.2906 24.0567C46.5296 24.1551 46.6984 24.3707 46.7405 24.6239L47.4015 28.5942L51.3718 29.2551C51.6249 29.2973 51.8406 29.466 51.939 29.7051C52.0374 29.9442 52.0093 30.216 51.864 30.427L50.0593 33.0051C49.9562 33.0004 49.853 32.9957 49.7452 32.9957C48.653 32.9957 47.6312 33.2864 46.7452 33.7973V33.7457C46.7452 31.2614 44.7296 29.2457 42.2452 29.2457C39.7609 29.2457 37.7452 31.2614 37.7452 33.7457C37.7452 36.2301 39.7609 38.2457 42.2452 38.2457C42.6249 38.2457 42.9906 38.1989 43.3421 38.1098C41.6265 38.9582 40.3749 40.5989 40.0702 42.5582L38.9265 43.3551C38.7156 43.5051 38.4437 43.5332 38.2046 43.4301C37.9655 43.327 37.7968 43.116 37.7546 42.8629L37.0984 38.902L33.1281 38.241C32.8749 38.1989 32.6593 38.0301 32.5609 37.791C32.4624 37.552 32.4906 37.2801 32.6359 37.0692L34.9609 33.7504L32.6359 30.4317C32.4859 30.2207 32.4577 29.9489 32.5609 29.7098C32.664 29.4707 32.8749 29.302 33.1281 29.2598L37.0984 28.5989L37.7593 24.6285C37.8015 24.3754 37.9702 24.1598 38.2093 24.0614C38.4484 23.9629 38.7202 23.991 38.9312 24.1364L42.2499 26.4614L45.5687 24.1364C45.7796 23.9864 46.0515 23.9582 46.2906 24.0614V24.0567ZM39.2499 33.7504C39.2499 32.9548 39.566 32.1917 40.1286 31.6291C40.6912 31.0665 41.4543 30.7504 42.2499 30.7504C43.0456 30.7504 43.8086 31.0665 44.3712 31.6291C44.9339 32.1917 45.2499 32.9548 45.2499 33.7504C45.2499 34.5461 44.9339 35.3091 44.3712 35.8717C43.8086 36.4343 43.0456 36.7504 42.2499 36.7504C41.4543 36.7504 40.6912 36.4343 40.1286 35.8717C39.566 35.3091 39.2499 34.5461 39.2499 33.7504ZM62.4952 44.2457C62.4952 46.3176 60.8171 47.9957 58.7452 47.9957H45.9999C43.5156 47.9957 41.4999 45.9801 41.4999 43.4957C41.4999 41.2645 43.1218 39.4176 45.2499 39.0614V39.0004C45.2499 36.516 47.2656 34.5004 49.7499 34.5004C51.3859 34.5004 52.8156 35.3723 53.6031 36.6754C54.2124 36.2489 54.9531 36.0004 55.7499 36.0004C57.8218 36.0004 59.4999 37.6785 59.4999 39.7504C59.4999 40.027 59.4718 40.2989 59.4109 40.5567C61.164 40.8707 62.4952 42.4035 62.4952 44.2457Z" fill="white"/>
        </g>
    </g>
    <defs>
        <filter id="filter0_dd_39_9" x="0.5" y="0" width="94" height="94" filterUnits="userSpaceOnUse" color-interpolation-filters="sRGB">
            <feFlood flood-opacity="0" result="BackgroundImageFix"/>
            <feColorMatrix in="SourceAlpha" type="matrix" values="0 0 0 0 0 0 0 0 0 0 0 0 0 0 0 0 0 0 127 0" result="hardAlpha"/>
            <feOffset dy="10"/>
            <feGaussianBlur stdDeviation="7.5"/>
            <feColorMatrix type="matrix" values="0 0 0 0 0 0 0 0 0 0 0 0 0 0 0 0 0 0 0.1 0"/>
            <feBlend mode="normal" in2="BackgroundImageFix" result="effect1_dropShadow_39_9"/>
            <feColorMatrix in="SourceAlpha" type="matrix" values="0 0 0 0 0 0 0 0 0 0 0 0 0 0 0 0 0 0 127 0" result="hardAlpha"/>
            <feOffset dy="4"/>
            <feGaussianBlur stdDeviation="3"/>
            <feColorMatrix type="matrix" values="0 0 0 0 0 0 0 0 0 0 0 0 0 0 0 0 0 0 0.1 0"/>
            <feBlend mode="normal" in2="effect1_dropShadow_39_9" result="effect2_dropShadow_39_9"/>
            <feBlend mode="normal" in="SourceGraphic" in2="effect2_dropShadow_39_9" result="shape"/>
        </filter>
        <linearGradient id="paint0_linear_39_9" x1="-7.12742" y1="27.6274" x2="38.1274" y2="72.8823" gradientUnits="userSpaceOnUse">
            <stop stop-color="#3B82F6"/>
            <stop offset="1" stop-color="#4F46E5"/>
        </linearGradient>
        <clipPath id="clip0_39_9">
            <path d="M32.5 24H62.5V48H32.5V24Z" fill="white"/>
        </clipPath>
    </defs>
</svg>
